<svg xmlns="http://www.w3.org/2000/svg" xmlns:xlink="http://www.w3.org/1999/xlink" preserveAspectRatio="xMidYMid" width="500" height="500" viewBox="0 0 500 500">
  <defs>
    <style>
      .cls-1 {
        fill: #000;
        fill-rule: evenodd;
      }
    </style>
  </defs>
  <path d="M478.326,387.927 L476.859,388.325 C476.632,388.384 476.406,388.413 476.179,388.413 C475.643,388.413 475.115,388.250 474.670,387.927 C474.042,387.474 473.647,386.756 473.605,385.980 C472.674,369.069 463.827,360.396 463.735,360.308 C445.269,340.686 376.027,338.697 375.332,338.680 C374.443,338.659 373.629,338.181 373.177,337.414 C372.732,336.650 372.707,335.706 373.110,334.918 C413.119,257.835 392.750,204.452 388.255,194.530 C387.726,193.355 387.785,192.030 388.414,190.896 C389.059,189.739 390.242,188.946 391.567,188.778 C416.951,185.601 433.085,195.222 437.412,198.247 C438.192,198.792 438.711,199.560 438.963,200.529 L485.622,374.795 C487.223,380.425 483.953,386.311 478.326,387.927 ZM480.666,376.188 C480.658,376.175 480.658,376.159 480.649,376.146 L434.083,202.215 C429.723,199.267 415.617,191.345 393.538,193.741 C399.014,206.654 416.682,259.337 379.525,333.684 C395.105,334.410 450.066,338.261 467.391,356.675 C467.685,356.952 476.498,365.460 478.460,382.254 C480.364,380.970 481.337,378.533 480.666,376.188 ZM429.588,175.348 C428.859,175.897 427.995,176.175 427.122,176.175 C426.368,176.175 425.605,175.969 424.926,175.554 C408.498,165.544 389.780,168.623 384.414,169.806 C382.351,170.238 380.254,169.021 379.626,166.978 C360.220,106.346 388.456,76.226 397.579,68.444 C398.636,67.542 400.079,67.261 401.387,67.656 C402.753,68.075 403.793,69.158 404.162,70.546 L431.072,171.039 C431.500,172.668 430.921,174.353 429.588,175.348 ZM399.626,73.512 C390.117,82.264 367.189,110.189 384.263,164.570 C387.030,164.012 391.819,163.274 397.664,163.274 C405.730,163.274 415.810,164.679 425.429,169.898 L399.626,73.512 ZM390.184,72.791 C373.479,88.960 365.990,112.274 370.132,135.155 L381.361,197.039 L391.902,251.684 C392.288,253.858 390.938,255.930 388.841,256.445 C388.640,256.492 388.439,256.517 388.229,256.517 C388.153,256.517 388.087,256.517 388.011,256.509 L372.868,255.220 C371.809,286.658 352.606,331.868 347.583,340.946 C346.996,342.024 345.906,342.763 344.606,342.960 C336.212,344.239 331.021,345.289 330.988,345.293 C323.902,346.824 315.642,347.470 307.046,347.470 C291.363,347.470 274.571,345.318 261.730,342.430 C259.905,347.372 258.339,352.403 257.092,357.539 C256.631,359.423 255.046,360.694 253.142,360.706 C253.134,360.706 253.125,360.706 253.118,360.706 C251.230,360.706 249.646,359.456 249.167,357.594 C247.299,350.379 244.761,343.342 241.761,336.439 C223.675,327.555 199.284,311.370 199.037,311.205 C188.815,303.640 178.945,296.814 168.764,290.261 C162.794,286.409 157.460,281.568 152.915,275.862 C135.046,253.404 122.936,238.280 122.072,237.327 C91.556,194.189 121.057,167.835 127.280,162.984 C128.236,162.246 129.435,161.999 130.601,162.224 C131.783,162.485 132.798,163.265 133.368,164.364 C136.740,170.906 147.809,181.578 155.354,188.817 C155.076,186.548 154.920,184.286 154.920,182.031 C154.920,155.571 165.558,131.547 182.782,113.928 L212.270,67.924 C212.345,66.821 213.116,65.889 214.190,65.613 L393.596,19.164 C394.686,18.875 395.885,19.068 396.858,19.689 C397.822,20.314 398.485,21.317 398.678,22.446 L404.498,56.433 C404.724,57.780 404.272,59.143 403.298,60.082 L390.184,72.791 ZM329.931,340.246 C329.965,340.241 335.063,339.210 343.349,337.938 C349.450,326.555 366.838,283.280 367.727,254.783 L319.814,250.706 C316.365,255.422 312.797,260.176 309.193,264.975 C291.960,287.921 274.268,311.496 263.624,337.564 C283.494,341.921 311.741,344.184 329.931,340.246 ZM152.185,192.919 C144.337,185.392 133.746,175.226 129.418,167.876 C120.806,175.025 100.253,197.538 125.996,234.008 C127.187,235.389 132.253,241.620 156.941,272.649 C161.141,277.914 166.056,282.382 171.548,285.923 C181.829,292.539 191.784,299.428 201.997,306.984 C202.123,307.065 221.457,319.897 238.259,328.849 C227.621,307.204 212.574,286.892 197.863,267.056 C179.988,242.945 162.914,219.917 157.058,197.636 C155.673,196.263 154.018,194.673 152.185,192.919 ZM202.006,263.985 C222.518,291.646 243.700,320.212 253.092,352.428 C254.359,347.833 255.894,343.310 257.616,338.848 C257.619,338.837 257.618,338.826 257.621,338.815 C257.679,338.576 257.779,338.359 257.895,338.153 C268.857,310.152 287.900,284.754 305.075,261.879 C308.915,256.768 312.713,251.708 316.363,246.700 C316.477,246.486 316.617,246.293 316.783,246.125 C333.080,223.709 346.266,202.331 346.266,182.031 C346.266,130.969 304.505,89.426 253.176,89.426 C201.838,89.426 160.068,130.969 160.068,182.031 C160.068,207.439 180.437,234.902 202.006,263.985 ZM393.789,24.443 L217.125,70.177 C217.066,70.307 217.000,70.433 216.924,70.550 L196.416,102.310 C212.459,90.970 232.040,84.274 253.176,84.274 C307.348,84.274 351.415,128.129 351.415,182.031 C351.415,202.788 339.040,223.897 323.342,245.835 L386.561,251.214 L376.296,197.986 L365.068,136.079 C360.606,111.498 368.657,86.456 386.594,69.082 L399.323,56.760 L393.789,24.443 ZM253.168,138.718 C275.809,138.718 294.233,157.052 294.233,179.589 C294.233,202.119 275.809,220.445 253.168,220.445 C230.526,220.445 212.111,202.119 212.111,179.589 C212.111,157.052 230.526,138.718 253.168,138.718 ZM253.168,215.293 C272.975,215.293 289.084,199.274 289.084,179.589 C289.084,159.896 272.975,143.870 253.168,143.870 C233.368,143.870 217.260,159.896 217.260,179.589 C217.260,199.274 233.368,215.293 253.168,215.293 ZM253.168,147.310 C271.079,147.310 285.645,161.788 285.645,179.589 C285.645,197.378 271.079,211.853 253.168,211.853 C235.264,211.853 220.698,197.378 220.698,179.589 C220.698,161.788 235.264,147.310 253.168,147.310 ZM253.168,206.701 C268.237,206.701 280.497,194.538 280.497,179.589 C280.497,164.633 268.237,152.462 253.168,152.462 C238.106,152.462 225.847,164.633 225.847,179.589 C225.847,194.538 238.106,206.701 253.168,206.701 ZM173.703,110.201 C174.768,111.141 174.877,112.774 173.938,113.839 C161.787,127.642 153.637,144.415 150.383,162.347 C150.156,163.592 149.074,164.466 147.851,164.466 C147.699,164.466 147.548,164.448 147.389,164.423 C145.989,164.167 145.058,162.824 145.317,161.424 C148.739,142.569 157.301,124.936 170.064,110.432 C171.011,109.358 172.639,109.258 173.703,110.201 ZM129.385,129.852 C126.902,130.986 72.218,156.334 88.654,206.499 C88.797,206.969 100.445,246.142 124.185,271.659 C125.283,272.854 125.595,274.512 124.999,275.992 C124.395,277.460 123.037,278.426 121.435,278.510 L97.452,279.717 L104.412,302.461 C104.470,302.659 104.579,303.284 104.597,303.489 C105.929,330.298 95.296,346.022 90.659,351.539 C89.879,352.467 88.746,352.983 87.573,352.983 C87.280,352.983 86.986,352.949 86.684,352.882 C85.174,352.546 83.984,351.401 83.581,349.895 L64.856,280.129 C64.697,279.924 64.579,279.693 64.503,279.445 L15.170,121.592 C14.834,120.544 14.943,119.368 15.489,118.382 C16.034,117.396 16.965,116.671 18.054,116.390 L185.368,73.071 C186.861,72.694 188.421,73.147 189.444,74.263 C190.467,75.354 190.802,76.910 190.325,78.325 C186.853,88.867 173.452,106.375 129.385,129.852 ZM20.411,121.106 L69.183,277.159 C69.384,277.406 69.535,277.687 69.619,278.002 L88.026,346.572 C92.672,340.405 100.580,326.417 99.447,303.771 L92.126,279.944 C91.757,278.728 91.959,277.427 92.688,276.383 C93.426,275.338 94.576,274.701 95.858,274.633 L118.869,273.475 C95.338,247.107 84.202,209.637 83.733,208.022 C65.879,153.515 126.508,125.507 127.121,125.230 C168.513,103.170 181.041,87.093 184.722,78.563 L20.411,121.106 ZM91.959,370.729 C110.953,357.350 114.030,333.332 114.474,323.623 C114.533,322.226 115.296,320.976 116.521,320.279 C117.779,319.562 119.271,319.545 120.554,320.234 C151.758,336.940 179.741,358.861 180.966,359.821 C185.460,363.128 190.266,366.245 196.069,369.630 C197.234,370.314 198.006,371.518 198.115,372.853 C198.224,374.158 197.687,375.437 196.681,376.284 C177.352,392.420 146.181,413.653 107.456,423.181 C107.129,423.260 106.802,423.299 106.483,423.299 C104.655,423.299 102.969,422.069 102.475,420.232 L90.349,375.105 C89.921,373.465 90.567,371.711 91.959,370.729 ZM107.196,417.932 C143.724,408.728 173.351,388.841 192.178,373.322 C186.769,370.125 182.198,367.126 177.879,363.950 C177.854,363.933 177.830,363.912 177.804,363.895 C177.536,363.677 150.290,342.209 119.531,325.537 C118.776,336.772 114.819,360.497 95.531,374.514 L107.196,417.932 ZM111.942,438.691 C120.177,437.018 141.871,431.517 165.435,416.565 L165.443,416.565 C167.087,415.524 169.158,415.742 170.501,417.093 C173.318,419.954 189.771,434.790 236.270,445.769 C238.115,446.205 239.440,447.837 239.474,449.738 C239.507,451.626 238.300,453.229 236.480,453.728 L130.374,482.597 C129.410,482.874 128.428,483.003 127.473,483.003 C122.860,483.003 118.592,479.957 117.259,475.288 L108.797,443.789 C108.504,442.689 108.680,441.511 109.275,440.550 C109.871,439.594 110.844,438.914 111.942,438.691 ZM122.223,473.912 C122.609,475.276 123.540,476.442 124.822,477.155 C126.089,477.864 127.590,478.032 128.982,477.629 L231.154,449.835 C189.494,439.447 172.538,426.180 167.490,421.364 C144.454,435.826 123.196,441.561 114.064,443.516 L122.223,473.912 ZM182.777,407.289 C182.836,405.980 183.524,404.759 184.613,404.028 C189.100,401.020 204.496,390.519 214.115,381.608 C215.289,380.526 216.908,380.241 218.409,380.861 C268.538,401.625 314.635,394.316 315.105,394.253 C326.208,392.474 363.139,387.574 363.516,387.524 C363.541,387.519 363.567,387.515 363.592,387.515 C400.925,383.756 414.150,392.571 418.711,398.168 C419.592,399.246 419.860,400.677 419.441,401.998 C419.005,403.336 417.940,404.356 416.573,404.725 L279.993,441.888 C279.734,441.956 279.164,442.005 278.719,442.005 C278.526,442.005 278.367,441.998 278.258,441.976 C262.064,439.333 207.355,429.252 184.286,410.645 C183.272,409.822 182.718,408.598 182.777,407.289 ZM279.105,436.896 L413.580,400.198 C409.193,396.036 396.858,389.344 364.145,392.638 C362.720,392.831 326.795,397.602 315.935,399.343 C314.023,399.657 268.371,406.916 217.075,385.892 C207.901,394.266 194.198,403.768 188.655,407.520 C211.381,424.771 263.473,434.340 279.105,436.896 Z" class="cls-1"/>
</svg>
