<svg xmlns="http://www.w3.org/2000/svg" xmlns:xlink="http://www.w3.org/1999/xlink" preserveAspectRatio="xMidYMid" width="500" height="500" viewBox="0 0 500 500">
  <defs>
    <style>
      .cls-1 {
        fill: #000;
        fill-rule: evenodd;
      }
    </style>
  </defs>
  <path d="M406.442,478.999 L94.528,478.999 C84.868,478.999 77.013,471.132 77.013,461.457 L77.013,71.893 C77.013,62.218 84.868,54.344 94.528,54.344 L165.644,54.344 C166.344,54.344 167.006,54.660 167.444,55.202 C167.883,55.746 168.053,56.461 167.902,57.147 L163.103,79.338 C162.625,81.583 162.554,83.979 162.881,86.873 C162.952,87.528 162.746,88.177 162.305,88.673 C161.868,89.163 161.240,89.442 160.581,89.442 L112.045,89.442 L112.045,443.908 L388.908,443.908 L388.908,89.442 L340.387,89.442 C339.729,89.442 339.100,89.163 338.664,88.673 C338.224,88.177 338.016,87.521 338.092,86.866 C338.420,83.972 338.352,81.583 337.874,79.360 L333.078,57.147 C332.931,56.461 333.100,55.746 333.541,55.202 C333.981,54.660 334.640,54.344 335.341,54.344 L406.442,54.344 C416.112,54.344 423.975,62.218 423.975,71.893 L423.975,461.457 C423.975,471.132 416.112,478.999 406.442,478.999 ZM419.352,71.893 C419.352,64.765 413.559,58.970 406.442,58.970 L338.205,58.970 L342.398,78.388 C342.820,80.370 342.986,82.488 342.888,84.816 L391.220,84.816 C392.495,84.816 393.530,85.848 393.530,87.129 L393.530,446.221 C393.530,447.502 392.495,448.535 391.220,448.535 L109.735,448.535 C108.459,448.535 107.423,447.502 107.423,446.221 L107.423,87.129 C107.423,85.848 108.459,84.816 109.735,84.816 L158.085,84.816 C157.991,82.494 158.157,80.363 158.582,78.366 L162.775,58.970 L94.528,58.970 C87.421,58.970 81.635,64.765 81.635,71.893 L81.635,461.457 C81.635,468.578 87.421,474.372 94.528,474.372 L406.442,474.372 C413.559,474.372 419.352,468.578 419.352,461.457 L419.352,71.893 ZM251.437,164.454 L355.392,164.454 C365.058,164.454 372.918,172.314 372.918,181.981 C372.918,191.656 365.058,199.530 355.392,199.530 L251.437,199.530 C241.767,199.530 233.903,191.656 233.903,181.981 C233.903,172.314 241.767,164.454 251.437,164.454 ZM251.437,194.903 L355.392,194.903 C362.506,194.903 368.296,189.109 368.296,181.981 C368.296,174.867 362.506,169.081 355.392,169.081 L251.437,169.081 C244.319,169.081 238.526,174.867 238.526,181.981 C238.526,189.109 244.319,194.903 251.437,194.903 ZM251.437,349.252 L355.392,349.252 C365.058,349.252 372.918,357.126 372.918,366.809 C372.918,376.476 365.058,384.336 355.392,384.336 L251.437,384.336 C241.767,384.336 233.903,376.476 233.903,366.809 C233.903,357.126 241.767,349.252 251.437,349.252 ZM251.437,379.709 L355.392,379.709 C362.506,379.709 368.296,373.922 368.296,366.809 C368.296,359.681 362.506,353.879 355.392,353.879 L251.437,353.879 C244.319,353.879 238.526,359.681 238.526,366.809 C238.526,373.922 244.319,379.709 251.437,379.709 ZM251.437,257.874 L355.392,257.874 C365.058,257.874 372.918,265.748 372.918,275.424 C372.918,285.099 365.058,292.973 355.392,292.973 L251.437,292.973 C241.767,292.973 233.903,285.099 233.903,275.424 C233.903,265.748 241.767,257.874 251.437,257.874 ZM251.437,288.347 L355.392,288.347 C362.506,288.347 368.296,282.552 368.296,275.424 C368.296,268.295 362.506,262.501 355.392,262.501 L251.437,262.501 C244.319,262.501 238.526,268.295 238.526,275.424 C238.526,282.552 244.319,288.347 251.437,288.347 ZM134.273,168.576 C137.857,165.547 142.415,164.160 147.052,164.499 C151.712,164.898 155.940,167.091 158.959,170.678 L165.557,178.492 L192.788,134.389 C195.257,130.388 199.126,127.593 203.688,126.515 C208.239,125.438 212.933,126.206 216.911,128.685 C225.126,133.764 227.681,144.584 222.607,152.812 L182.669,217.531 C179.717,222.316 174.625,225.405 169.047,225.813 C168.618,225.850 168.188,225.865 167.760,225.865 C162.580,225.865 157.697,223.597 154.363,219.634 L132.162,193.306 C125.936,185.907 126.880,174.815 134.273,168.576 ZM135.700,190.322 L157.901,216.650 C160.555,219.800 164.495,221.510 168.693,221.201 C172.814,220.899 176.560,218.617 178.732,215.105 L218.670,150.386 C222.407,144.328 220.526,136.356 214.476,132.618 C211.548,130.802 208.092,130.237 204.750,131.021 C201.392,131.813 198.542,133.870 196.725,136.816 L167.816,183.638 C167.424,184.272 166.758,184.678 166.016,184.731 C165.283,184.829 164.559,184.490 164.081,183.917 L155.424,173.662 C153.199,171.025 150.091,169.405 146.661,169.110 C146.289,169.081 145.920,169.066 145.551,169.066 C142.517,169.066 139.607,170.128 137.254,172.117 C131.812,176.706 131.116,184.874 135.700,190.322 ZM172.204,341.656 C186.061,341.656 197.335,352.937 197.335,366.809 C197.335,380.682 186.061,391.961 172.204,391.961 C158.341,391.961 147.064,380.682 147.064,366.809 C147.064,352.937 158.341,341.656 172.204,341.656 ZM172.204,387.335 C183.512,387.335 192.712,378.127 192.712,366.809 C192.712,355.491 183.512,346.283 172.204,346.283 C160.893,346.283 151.686,355.491 151.686,366.809 C151.686,378.127 160.893,387.335 172.204,387.335 ZM172.204,250.279 C186.061,250.279 197.335,261.559 197.335,275.424 C197.335,289.295 186.061,300.575 172.204,300.575 C158.341,300.575 147.064,289.295 147.064,275.424 C147.064,261.559 158.341,250.279 172.204,250.279 ZM172.204,295.949 C183.512,295.949 192.712,286.742 192.712,275.424 C192.712,264.113 183.512,254.905 172.204,254.905 C160.893,254.905 151.686,264.113 151.686,275.424 C151.686,286.742 160.893,295.949 172.204,295.949 ZM315.029,97.045 L185.929,97.045 C182.048,97.045 178.427,95.312 175.999,92.299 C173.579,89.299 172.649,85.388 173.451,81.583 L184.148,32.062 C185.417,26.231 190.664,21.996 196.627,21.996 L304.338,21.996 C310.305,21.996 315.552,26.231 316.812,32.062 L327.504,81.568 C328.335,85.381 327.409,89.292 324.962,92.305 C322.542,95.312 318.917,97.045 315.029,97.045 ZM322.982,82.556 L312.292,33.042 C311.491,29.320 308.144,26.622 304.338,26.622 L196.627,26.622 C192.825,26.622 189.479,29.327 188.670,33.042 L177.975,82.548 C177.463,84.974 178.054,87.476 179.602,89.390 C181.148,91.311 183.456,92.419 185.929,92.419 L315.029,92.419 C317.510,92.419 319.820,91.311 321.364,89.390 C322.926,87.468 323.514,84.981 322.982,82.556 Z" class="cls-1"/>
</svg>
